<svg width="512" height="512" viewBox="0 0 512 512" fill="none" xmlns="http://www.w3.org/2000/svg">
<circle cx="256" cy="256" r="239" stroke="#A0AEC0" stroke-width="34"/>
<path d="M187.052 198.156C170.455 181.559 170.455 154.649 187.052 138.052V138.052C203.649 121.455 230.559 121.455 247.156 138.052L345.09 235.986C356.025 246.921 356.025 264.65 345.09 275.584L304.785 315.889L187.052 198.156Z" fill="#A0AEC0"/>
<path d="M247.156 374.094C230.559 390.692 203.649 390.692 187.052 374.094V374.094C170.455 357.497 170.455 330.588 187.052 313.99L284.986 216.056C295.921 205.121 313.65 205.121 324.584 216.056L345.09 236.562C356.025 247.497 356.025 265.225 345.09 276.16L247.156 374.094Z" fill="#A0AEC0"/>
</svg>
