<svg width="32" height="32" viewBox="0 0 32 32" fill="none" xmlns="http://www.w3.org/2000/svg">
<circle cx="16" cy="16" r="15.4074" stroke="#3BA17E" stroke-width="1.18519"/>
<path fill-rule="evenodd" clip-rule="evenodd" d="M11.2888 22.5169L11.0946 22.2654L10.6536 21.6944L10.4238 21.3967L10.7397 21.1927L11.1476 20.9293C13.6707 19.2996 16.4504 18.1503 19.4306 17.4223C17.6054 14.9439 16.2308 12.2955 15.3405 9.40929L15.1974 8.94532L15.0866 8.58598L15.454 8.50572L16.1588 8.35173L16.4692 8.28391L16.5629 8.58755L16.706 9.05152C17.6614 12.149 19.2272 15.0856 21.3222 17.7058L21.5568 17.9991L21.3944 18.1082L21.5042 18.3301L21.0627 18.4188C17.7736 19.0793 14.6866 20.3224 11.9636 22.0811L11.5557 22.3445L11.2888 22.5169ZM17.6833 13.3167L17.6833 13.3167L17.6827 13.3165C17.6892 13.3292 17.6958 13.3419 17.7024 13.3546C17.696 13.3419 17.6896 13.3293 17.6833 13.3167Z" fill="#3BA17E"/>
</svg>
