<svg width="40" height="40" viewBox="0 0 40 40" fill="none" xmlns="http://www.w3.org/2000/svg">
<path d="M8.67345 17.7976C7.77343 17.5938 6.89562 17.3279 6.08505 16.8735C4.33149 15.8903 3.06811 14.4945 2.32982 12.6009C1.8515 11.374 1.78154 10.1084 1.89756 8.84786C2.03311 7.37513 2.60374 6.03145 3.53782 4.85813C4.80556 3.26568 6.43892 2.27899 8.42986 1.88484C8.74266 1.82292 9.06804 1.80053 9.38762 1.80037C18.3538 1.79601 27.3201 1.80891 36.2861 1.77876C37.2108 1.77565 38.1585 2.6913 38.1567 3.65549C38.1549 4.58396 37.3344 5.54836 36.471 5.5526C35.4098 5.55782 34.3487 5.59925 33.2298 5.599C33.0038 5.56429 32.8356 5.54802 32.6673 5.548C25.1816 5.54674 17.6959 5.54596 10.2102 5.55017C9.88742 5.55035 9.55982 5.57105 9.24267 5.6279C6.35008 6.14639 4.81362 9.11359 6.01849 11.6223C6.74396 13.1329 7.97244 14.0903 9.64209 14.1018C17.3618 14.1552 25.082 14.1289 32.802 14.1276C32.9385 14.1275 33.0751 14.0826 33.2116 14.0586C34.1743 14.0599 35.1371 14.0676 36.0998 14.0606C36.9881 14.0541 37.688 14.39 38.0029 15.2425C38.4544 16.4645 37.8776 17.7927 36.3956 17.871C34.7608 17.9574 33.118 17.8919 31.4064 17.8927C30.0461 17.8776 28.7581 17.8502 27.4701 17.8491C21.8216 17.8442 16.1732 17.8485 10.5247 17.8448C9.90763 17.8444 9.29054 17.8141 8.67345 17.7976Z" fill="#FFC2D2"/>
<path d="M8.63706 17.8041C9.29038 17.8141 9.90747 17.8444 10.5246 17.8448C16.173 17.8485 21.8215 17.8443 27.4699 17.8491C28.7579 17.8502 30.0459 17.8776 31.37 17.8983C32.1917 18.1606 33.0292 18.3176 33.7531 18.6935C35.7878 19.75 37.1823 21.3746 37.8241 23.6167C38.3236 25.3616 38.284 27.0952 37.6356 28.7671C37.0016 30.402 35.8987 31.716 34.3966 32.6462C33.1821 33.3983 31.8683 33.89 30.4145 33.9054C27.674 33.9345 24.9334 33.9585 22.1502 33.9486C22.1087 32.6864 22.1099 31.4601 22.1251 30.2255C22.158 30.2055 22.1742 30.191 22.2244 30.1696C24.9167 30.1634 27.5726 30.1616 30.2285 30.1593C31.0676 30.1586 31.8403 29.8976 32.5028 29.4141C33.4969 28.6886 34.1496 27.7449 34.3194 26.4657C34.4896 25.1831 34.148 24.0866 33.334 23.135C32.3807 22.0205 31.1103 21.596 29.6717 21.5964C22.1986 21.5987 14.7255 21.5982 7.25232 21.6012C7.0987 21.6012 6.94509 21.6314 6.79148 21.6475C5.76563 21.6452 4.73923 21.6212 3.71409 21.647C2.7665 21.6709 1.86566 20.7654 1.84711 19.8239C1.82263 18.5815 2.84687 17.7757 3.88702 17.802C5.45736 17.8416 7.02948 17.8112 8.63706 17.8041Z" fill="#3BA17E"/>
<path d="M33.2079 14.0223C33.0753 14.0826 32.9388 14.1275 32.8023 14.1276C25.0822 14.1289 17.362 14.1552 9.64233 14.1018C7.97268 14.0903 6.7442 13.1329 6.01872 11.6223C4.81385 9.11359 6.35031 6.14639 9.24291 5.6279C9.56006 5.57105 9.88766 5.55035 10.2104 5.55017C17.6962 5.54596 25.1819 5.54674 32.6676 5.548C32.8358 5.54802 33.0041 5.56429 33.1943 5.59913C33.2115 6.77245 33.2067 7.91963 33.1602 9.10296C26.4307 9.13925 19.7428 9.13937 13.055 9.13961C12.9118 9.13961 12.7684 9.13459 12.6257 9.1428C12.2794 9.16274 12.0514 9.37764 12.033 9.69294C12.0117 10.0595 12.2213 10.3293 12.5815 10.3772C12.7353 10.3976 12.8932 10.3892 13.0492 10.3892C19.7631 10.3905 26.477 10.3913 33.1909 10.3922C33.1952 11.5901 33.1996 12.7881 33.2079 14.0223Z" fill="#F5F5F5"/>
<path d="M6.79395 21.6836C6.94516 21.6314 7.09877 21.6012 7.25239 21.6011C14.7255 21.5982 22.1987 21.5987 29.6718 21.5964C31.1104 21.5959 32.3808 22.0204 33.3341 23.1349C34.1481 24.0866 34.4896 25.1831 34.3194 26.4657C34.1497 27.7448 33.497 28.6886 32.5029 29.4141C31.8404 29.8976 31.0677 30.1586 30.2286 30.1593C27.5727 30.1616 24.9167 30.1633 22.2057 30.1628C22.1373 30.1589 22.1241 30.1576 22.1031 30.1203C22.0874 28.8894 22.0795 27.6943 22.1107 26.4967C23.8545 26.4915 25.5593 26.4904 27.2642 26.485C27.749 26.4835 27.9447 26.3266 27.9668 25.9442C27.9906 25.53 27.7638 25.285 27.3064 25.2439C27.1514 25.2299 26.9943 25.2364 26.8382 25.2364C20.1618 25.235 13.4854 25.234 6.80902 25.2329C6.8048 24.0618 6.80057 22.8907 6.79395 21.6836Z" fill="#F5F5F5"/>
<path d="M22.072 26.4992C22.0798 27.6943 22.0877 28.8894 22.1005 30.1397C22.1075 30.208 22.1094 30.2209 22.1114 30.2338C22.1102 31.4601 22.1091 32.6863 22.1147 33.9487C22.1214 35.3771 22.1214 36.7694 22.1214 38.2688C21.6539 37.9404 21.2537 37.6628 20.8572 37.38C20.128 36.8601 19.3964 36.3435 18.6762 35.8115C18.4778 35.6649 18.3574 35.7053 18.1708 35.8429C17.1308 36.6097 16.0769 37.3574 15.0257 38.1087C14.9673 38.1505 14.8899 38.1657 14.7637 38.2164C14.7637 36.8046 14.7637 35.4316 14.7685 33.9865C14.7739 32.6887 14.7746 31.463 14.7781 30.2174C14.7789 30.1843 14.7769 30.1711 14.7856 30.1225C14.8047 28.8932 14.8131 27.6992 14.8545 26.5048C17.2822 26.5026 19.6771 26.5009 22.072 26.4992Z" fill="#EB4040"/>
<path d="M14.7753 30.2373C14.7747 31.463 14.774 32.6887 14.7645 33.9502C11.1687 33.9855 7.58178 33.9874 3.9949 33.9823C3.33453 33.9813 2.74821 33.803 2.28761 33.2747C1.8816 32.809 1.72498 31.8921 1.98749 31.2521C2.2095 30.7107 3.01559 30.1181 3.60476 30.1436C4.64247 30.1885 5.68356 30.1553 6.79561 30.1569C9.47435 30.1639 12.0807 30.1688 14.7004 30.1862C14.7331 30.2133 14.7536 30.2262 14.7753 30.2373Z" fill="#3BA17E"/>
<path d="M14.6869 30.1738C12.0805 30.1688 9.47415 30.1639 6.83165 30.152C6.79652 28.9495 6.79751 27.7538 6.84028 26.5223C7.25829 26.4863 7.63453 26.4855 8.01077 26.4865C10.281 26.4925 12.5512 26.499 14.8214 26.5053C14.813 27.6992 14.8047 28.8932 14.763 30.1236C14.7155 30.1646 14.7012 30.1692 14.6869 30.1738Z" fill="#F5F5F5"/>
<path d="M14.8541 26.5048C12.5509 26.499 10.2807 26.4925 8.01048 26.4865C7.63424 26.4855 7.258 26.4864 6.84599 26.4862C6.80583 26.0924 6.80144 25.6988 6.80299 25.269C13.4853 25.234 20.1617 25.235 26.8381 25.2364C26.9942 25.2364 27.1513 25.2299 27.3063 25.2439C27.7638 25.285 27.9906 25.53 27.9667 25.9442C27.9446 26.3267 27.749 26.4835 27.2641 26.485C25.5592 26.4905 23.8544 26.4915 22.1106 26.4967C19.6767 26.5009 17.2819 26.5026 14.8541 26.5048Z" fill="#E0E0E0"/>
<path d="M33.1965 10.356C26.4767 10.3914 19.7628 10.3906 13.049 10.3893C12.8929 10.3892 12.735 10.3976 12.5813 10.3772C12.221 10.3293 12.0114 10.0595 12.0327 9.69297C12.0511 9.37767 12.2791 9.16276 12.6254 9.14283C12.7681 9.13462 12.9116 9.13964 13.0547 9.13964C19.7425 9.1394 26.4304 9.13928 33.154 9.13908C33.194 9.53264 33.1983 9.92627 33.1965 10.356Z" fill="#E0E0E0"/>
<path d="M22.1257 30.2255C22.1097 30.2209 22.1077 30.2079 22.1086 30.1756C22.1246 30.1576 22.1379 30.1589 22.1699 30.167C22.1748 30.191 22.1586 30.2055 22.1257 30.2255Z" fill="#FABC37"/>
<path d="M14.7002 30.1862C14.7012 30.1692 14.7155 30.1646 14.7522 30.1589C14.7768 30.171 14.7788 30.1843 14.778 30.2174C14.7534 30.2262 14.7329 30.2133 14.7002 30.1862Z" fill="#FABC37"/>
</svg>
