<svg width="120" height="111" viewBox="0 0 120 111" fill="none" xmlns="http://www.w3.org/2000/svg">
<path d="M111.152 34.0367C104.711 25.1979 95.7111 19.292 85.8412 16.627V16.6404C83.5511 14.0959 80.9665 11.7523 78.0738 9.66316C56.151 -6.27336 25.3761 -1.41205 9.37264 20.5107C-3.52389 38.3221 -2.97482 62.2805 10.1762 79.3018L10.2833 97.0596C10.2833 97.4881 10.3503 97.9167 10.4842 98.3184C11.194 100.582 13.6045 101.827 15.8544 101.117L32.8087 95.774C37.295 97.3676 41.9287 98.2783 46.5355 98.5327L46.4686 98.5863C58.4009 107.278 74.0428 109.889 88.3856 105.148L105.407 110.693C105.835 110.827 106.277 110.907 106.733 110.907C109.103 110.907 111.018 108.992 111.018 106.622V88.6762C122.817 72.6593 123.125 50.5223 111.152 34.0367ZM34.6836 86.2656L33.0765 85.596L19.8184 89.7475L19.6845 75.8198L18.6131 74.6145C7.28348 60.794 6.53353 40.88 17.14 26.2693C30.0499 8.56502 54.7984 4.65454 72.4491 17.4305C90.1534 30.3003 94.0773 55.0086 81.2879 72.6057C70.5608 87.3236 51.3567 92.7608 34.6836 86.2656ZM102.313 83.989L101.242 85.3282L101.376 99.2559L88.2517 94.8365L86.6447 95.5061C79.1451 98.2917 71.1501 98.5193 63.7443 96.4436L63.7175 96.4302C73.6142 93.3902 82.5869 87.2298 89.0552 78.3643C99.2868 64.2625 100.947 46.5448 95.0013 31.4386L95.0817 31.4922C98.1618 33.7019 100.988 36.4606 103.385 39.7952C113.107 53.1337 112.558 71.2933 102.313 83.989Z" fill="#CBD5E0"/>
<path d="M68.1634 44.2146C65.0698 44.2146 62.6726 46.6118 62.6726 49.5714C62.6726 52.5311 65.0698 54.9283 68.1634 54.9283C70.9891 54.9283 73.3863 52.5311 73.3863 49.5714C73.3863 46.6118 70.9891 44.2146 68.1634 44.2146ZM30.6657 44.2146C27.5721 44.2146 25.1749 46.6118 25.1749 49.5714C25.1749 52.5311 27.5721 54.9283 30.6657 54.9283C33.4914 54.9283 35.8886 52.5311 35.8886 49.5714C35.8886 46.6118 33.4914 44.2146 30.6657 44.2146Z" fill="#CBD5E0"/>
<path d="M49.4144 44.2146C46.3209 44.2146 43.9237 46.6118 43.9237 49.5714C43.9237 52.5311 46.3209 54.9283 49.4144 54.9283C52.2402 54.9283 54.6373 52.5311 54.6373 49.5714C54.6373 46.6118 52.2402 44.2146 49.4144 44.2146Z" fill="#CBD5E0"/>
</svg>
