<?xml version="1.0" encoding="UTF-8"?>
<svg id="Layer_2" data-name="Layer 2" xmlns="http://www.w3.org/2000/svg" viewBox="0 0 480 480">
  <defs>
    <style>
      .cls-1 {
        fill: none;
      }

      .cls-1, .cls-2 {
        stroke-width: 0px;
      }

      .cls-2 {
        fill: #009c93;
      }
    </style>
  </defs>
  <g id="Layer_1-2" data-name="Layer 1">
    <g>
      <rect class="cls-1" width="480" height="480"/>
      <g>
        <path class="cls-2" d="M151.17,216.34c-.2-.07-.36-.07-.48,0-1.41.38-3.21.77-5.39,1.17-2.19.39-4.47.77-6.87,1.13-2.4.37-4.71.64-6.93.84-2.22.2-4.03.29-5.44.29h-11.64v-54.85c0-.85-.38-1.27-1.16-1.27h-14.71c-.91,0-1.38.39-1.38,1.17v66.43c0,.92.21,1.49.64,1.72.42.23.95.34,1.59.34h26.59c1.76,0,3.75-.11,5.97-.34,2.21-.23,4.46-.5,6.75-.84,2.29-.32,4.48-.69,6.6-1.08,2.11-.39,3.91-.75,5.38-1.08.43,0,.7-.2.85-.58.07-.2.11-.37.11-.49v-11.78c0-.32-.16-.58-.48-.77Z"/>
        <path class="cls-2" d="M377.74,201.23v10.89c0,.2-.04.39-.11.59-.15.39-.39.59-.74.59-1.55.33-3.6.64-6.13.93-2.54.29-5.22.55-8.04.79-2.83.22-5.58.41-8.26.54-2.68.12-4.9.2-6.66.2h-39.44c-.57,0-.92-.12-1.06-.34-.15-.23-.21-.6-.21-1.13v-31.21c0-.2.06-.42.21-.68.14-.26.45-.39.95-.39h49.49v-7.95h-50.27c-.85,0-1.26-.33-1.27-.98-.01-11.79-2.79-24.92,6.01-34.49.7-.76,1.45-1.47,2.24-2.13l-74.18-63.71-74.18,63.71c.77.65,1.5,1.35,2.2,2.11,5.43,5.91,6.22,12.57,6.18,20.22-.06,10.81-.11,21.62-.11,32.43h13.43c.85,0,1.27.37,1.27,1.08v11.67c0,.33-.07.64-.21.93-.15.29-.45.44-.95.44h-13.54v47.49c0,.85-.36,1.28-1.07,1.28h-15.1c-.71,0-1.07-.43-1.07-1.28,0-23.16.02-46.31.02-69.47,0-8.76-.06-17.52.21-26.28.14-4.51-1.49-9.14-6.84-9.14h-6.12c-6.23,0-9.09-7.74-4.37-11.78l95.88-82.35c1.27-1.08,2.81-1.62,4.37-1.62s3.11.54,4.37,1.62l95.88,82.35c4.72,4.04,1.86,11.78-4.37,11.78h-6.12c-4.07,0-7.29,3.48-6.93,7.52.16,1.86.26,3.72.28,5.63h50.86c.42,0,.77.15,1.06.44.28.29.42.64.42,1.03v31.1c0,.65-.32.98-.95.98h-49.7v8.44h22.73c1.41,0,3.45-.07,6.13-.2,2.68-.14,5.47-.29,8.36-.49,2.89-.2,5.68-.45,8.36-.79,2.68-.33,4.72-.69,6.13-1.08.15-.06.28-.06.43,0,.34.2.53.43.53.69Z"/>
        <path class="cls-2" d="M208.75,187.98c0-2.49.72-4.53,2.17-6.13,1.44-1.6,3.52-2.88,6.24-3.83,2.71-.95,6.06-1.62,10.05-2.01,3.98-.39,8.51-.59,13.59-.59s9.6.2,13.59.59c3.98.39,7.33,1.06,10.05,2.01,2.71.95,4.79,2.22,6.24,3.83,1.44,1.6,2.17,3.65,2.17,6.13v1.37c0,4.19-1.99,7.2-5.98,9.03-3.98,1.83-9.64,2.94-16.97,3.34v4.32h34.58c.14,0,.28.03.42.1.35.2.53.46.53.78v8.44c0,.72-.32,1.08-.95,1.08h-86.92c-.78,0-1.16-.42-1.16-1.28v-8.05c0-.26.09-.51.26-.74.18-.23.48-.34.9-.34h34.37v-4.32c-7.47-.39-13.2-1.5-17.18-3.34-3.98-1.83-5.97-4.84-5.97-9.03v-1.37ZM205.79,173.65c-.85,0-1.27-.42-1.27-1.28v-8.44c0-.72.42-1.08,1.27-1.08h20.51c1.48,0,2.94-.31,4.39-.93,1.44-.62,2.17-1.68,2.17-3.19v-4.81h18.61v3.53c0,.59-.25,1.19-.74,1.82-.49.62-1.15,1.18-1.96,1.67-.81.49-1.71.9-2.7,1.23-.99.33-1.94.56-2.86.69h32.89c.14,0,.32.03.53.1.35.2.53.46.53.78v8.83c0,.72-.35,1.08-1.06,1.08h-70.32ZM208.23,259.01c-.28,0-.56-.07-.85-.2-.49-.2-.74-.59-.74-1.18v-22.27c0-.26.21-.52.63-.78l.63-.2h49.6v-4.02h-50.02c-.21.07-.42.03-.63-.1-.42-.13-.63-.49-.63-1.08v-7.85c0-.72.42-1.08,1.27-1.08h66.62c.21,0,.42.07.63.2.14.13.3.26.48.39.17.13.26.33.26.59v21.98c0,.65-.39.98-1.16.98h-49.7v4.51h26.01c2.04,0,4.35-.07,6.93-.2,2.57-.13,5.13-.29,7.67-.49,2.54-.2,4.93-.46,7.19-.79,2.26-.33,4.09-.69,5.5-1.08.14-.07.28-.07.42,0,.35.2.53.46.53.78v8.34c0,.2-.04.39-.11.59-.14.39-.39.59-.74.59-1.55.33-3.51.62-5.87.88-2.36.26-4.85.51-7.46.74-2.61.23-5.15.41-7.61.54-2.47.13-4.58.2-6.35.2h-42.51ZM225.15,188.96c0,1.31,1.29,2.19,3.86,2.65,2.57.46,6.5.69,11.79.69s9.22-.23,11.79-.69c2.57-.46,3.86-1.34,3.86-2.65v-.59c0-1.31-1.29-2.19-3.86-2.65-2.57-.46-6.5-.69-11.79-.69s-9.22.23-11.79.69c-2.57.46-3.86,1.34-3.86,2.65v.59Z"/>
        <path class="cls-2" d="M385.35,230.46c-.14-.06-.28-.1-.42-.1h-34.58v-10.49c0-.79-.32-1.18-.96-1.18h-15.96c-.5,0-.8.12-.91.34-.1.23-.15.5-.15.84v10.49h-34.37c-.43,0-.72.12-.91.34-.17.23-.26.48-.26.74v10.8c0,.85.38,1.27,1.17,1.27h86.92c.63,0,.95-.36.95-1.07v-11.19c0-.32-.17-.59-.53-.79Z"/>
        <path class="cls-2" d="M126.12,281.04c.08,3.28.5,6.34,1.27,9.15.77,2.82,2.02,5.34,3.75,7.55,1.73,2.21,3.96,4.09,6.69,5.62,2.73,1.54,6.06,2.66,9.98,3.37.14,0,.31.04.52.11.35.21.52.46.52.75v12.96c0,.29-.1.57-.29.86-.19.29-.48.43-.86.43-7.21-.93-13.45-2.87-18.74-5.83-5.29-2.96-9.43-6.83-12.42-11.62-1.08,2.14-2.54,4.18-4.38,6.1-1.85,1.93-3.96,3.71-6.35,5.35-2.39,1.64-4.96,3.11-7.73,4.39s-5.58,2.32-8.42,3.1c-.69.21-1.19.07-1.5-.43l-6-11.35c-.23-.57-.19-1,.12-1.29.15-.14.31-.25.46-.32,4-1.36,7.52-2.89,10.56-4.6,3.04-1.71,5.58-3.71,7.62-6,2.04-2.28,3.6-4.92,4.67-7.92,1.08-3,1.65-6.46,1.73-10.39h-19.04c-.85,0-1.27-.39-1.27-1.18v-11.03c0-.29.08-.57.23-.86.15-.28.5-.43,1.04-.43h56.66c.92,0,1.38.43,1.38,1.29v11.13c0,.71-.35,1.07-1.04,1.07h-19.16ZM99.7,328.37c0-1,.46-1.5,1.38-1.5h15.58c.92,0,1.38.43,1.38,1.29v9.96h38.89v-9.74c0-.64.12-1.05.35-1.23.23-.18.58-.27,1.04-.27h15.35c1,0,1.5.43,1.5,1.29v25.01c0,1.85-.12,3.56-.35,5.13-.23,1.56-.77,3.13-1.62,4.7-1.77,1.92-3.65,3.52-5.65,4.8-2,1.28-3.96,2.28-5.89,2.99-1.92.71-3.77,1.21-5.54,1.49-1.77.28-3.27.43-4.5.43h-50.43c-.54,0-.92-.09-1.15-.27-.23-.18-.35-.55-.35-1.12v-42.94ZM152.2,359.63c1.77,0,3-.45,3.69-1.34.69-.89,1.04-2.05,1.04-3.48v-4.28h-38.89v9.1h34.16ZM158.09,321.41c-.77,0-1.15-.46-1.15-1.39v-52.68c0-.86.38-1.28,1.15-1.28h16.39c.85,0,1.27.46,1.27,1.39v52.57c0,.93-.42,1.39-1.27,1.39h-16.39Z"/>
        <path class="cls-2" d="M265.41,365.52c0,.93-.39,1.39-1.15,1.39h-14.08c-.85,0-1.27-.46-1.27-1.39v-51.71h-8.66v9.21c0,4.28-.58,7.94-1.73,10.97-1.15,3.03-2.81,5.51-4.96,7.44-2.15,1.93-4.71,3.35-7.67,4.28-2.96.93-6.25,1.39-9.87,1.39s-6.91-.46-9.87-1.39c-2.96-.93-5.52-2.36-7.67-4.29-2.15-1.93-3.81-4.41-4.96-7.45-1.15-3.04-1.73-6.7-1.73-10.99v-28.73c0-4.29.58-7.95,1.73-10.99,1.15-3.04,2.81-5.52,4.96-7.45,2.15-1.93,4.71-3.36,7.67-4.29,2.96-.93,6.25-1.39,9.87-1.39s6.9.47,9.87,1.4c2.96.93,5.52,2.36,7.67,4.3,2.15,1.93,3.81,4.42,4.96,7.47,1.15,3.05,1.73,6.72,1.73,11.02v5.05h8.66v-31.91c0-.93.42-1.39,1.27-1.39h14.08c.38,0,.67.12.87.37.19.25.29.55.29.91v98.18ZM223.29,294.51c0-1.28-.06-2.54-.17-3.79-.12-1.25-.42-2.39-.92-3.42-.5-1.03-1.23-1.85-2.19-2.46-.96-.6-2.29-.91-3.98-.91s-3.02.3-3.98.91c-.96.61-1.69,1.43-2.19,2.46-.5,1.03-.81,2.17-.92,3.42s-.17,2.51-.17,3.79v28.21c0,1.28.06,2.55.17,3.79.12,1.25.42,2.38.92,3.42.5,1.03,1.23,1.85,2.19,2.46.96.6,2.29.91,3.98.91s3.02-.3,3.98-.91c.96-.61,1.69-1.42,2.19-2.46.5-1.03.81-2.17.92-3.42.12-1.25.17-2.51.17-3.79v-28.21ZM273.25,368.09c-.77,0-1.15-.47-1.15-1.39v-99.36c0-.36.1-.66.29-.91.19-.25.48-.37.87-.37h14.42c.85,0,1.27.46,1.27,1.39v99.25c0,.93-.42,1.39-1.27,1.39h-14.42Z"/>
        <path class="cls-2" d="M304.07,346.79c-.77.21-1.27.04-1.5-.54l-6.35-11.78c-.23-.57-.19-1,.12-1.28.15-.14.31-.25.46-.32,8.54-3.07,14.79-7.37,18.75-12.9,3.96-5.53,5.94-12.58,5.94-21.15v-27.94c0-.21.06-.45.17-.7s.45-.37.99-.37h17.18c.39,0,.7.12.93.37.23.25.35.48.35.7v27.73c0,3.64.3,7.14.92,10.49.61,3.36,1.68,6.41,3.21,9.15,1.53,2.75,3.65,5.07,6.37,6.96,2.72,1.89,6.14,3.23,10.27,4.01.23,0,.46.07.69.21.46.29.69.61.69.96v13.81c0,.29-.12.57-.35.86-.23.29-.57.43-1.04.43-7.45-1.07-13.67-3.28-18.66-6.64-4.99-3.35-9.1-7.67-12.33-12.96-1.08,2.29-2.54,4.5-4.35,6.64-1.82,2.14-3.89,4.12-6.2,5.94-2.31,1.82-4.85,3.45-7.62,4.87-2.77,1.43-5.65,2.57-8.65,3.43ZM376.2,368.09c-.78,0-1.16-.47-1.16-1.39v-57.71h-19.96c-.54,0-.89-.16-1.04-.48-.16-.32-.23-.66-.23-1.02v-12.53c0-.78.46-1.18,1.38-1.18h19.85v-26.45c0-.36.1-.66.29-.91.19-.25.48-.37.87-.37h16.49c.77,0,1.16.46,1.16,1.39v99.25c0,.93-.39,1.39-1.16,1.39h-16.49Z"/>
        <g>
          <path class="cls-2" d="M261.4,109.05h-42.23c-3.33,0-6.03,2.7-6.03,6.03v21.87c0,3.33,2.7,6.03,6.03,6.03h42.23c3.33,0,6.03-2.7,6.03-6.03v-21.87c0-3.33-2.7-6.03-6.03-6.03ZM227.74,129.68c-2.03,0-3.67-1.64-3.67-3.67s1.64-3.67,3.67-3.67,3.67,1.64,3.67,3.67-1.64,3.67-3.67,3.67ZM240.9,129.68c-2.03,0-3.67-1.64-3.67-3.67s1.64-3.67,3.67-3.67,3.67,1.64,3.67,3.67-1.64,3.67-3.67,3.67ZM254.06,129.68c-2.03,0-3.67-1.64-3.67-3.67s1.64-3.67,3.67-3.67,3.67,1.64,3.67,3.67-1.64,3.67-3.67,3.67Z"/>
          <path class="cls-2" d="M255.46,137.22c13.08,2.52,3.63.69,6.54,1.26-.03.03-.08.08-.11.11-.08.07-.29.29-.37.36-1.98,2.12-2.77,5.32-1.6,8.12.47,1.13,1.32,2.21,2.57,2.99-.74.14-1.51.19-2.29.14-6.43-.73-10.53-7.41-11.19-13.48,0-.11-.06-.47-.07-.58,0,0-.01-.1-.01-.1v-.05s0-.02,0-.02h0c2.92.53-6.54-1.27,6.55,1.23h0Z"/>
        </g>
      </g>
    </g>
  </g>
</svg>