<svg width="96" height="96" viewBox="0 0 96 96" fill="none" xmlns="http://www.w3.org/2000/svg">
<path fill-rule="evenodd" clip-rule="evenodd" d="M4.43272e-05 48C4.43272e-05 21.4896 21.4896 0 48 0C74.5104 0 96 21.4896 96 48C96 74.5104 74.5104 96 48 96C40.9272 96.0096 33.9403 94.4506 27.5424 91.4352L5.76484 95.8992C4.98727 96.0581 4.18243 96.0217 3.42235 95.7934C2.66228 95.565 1.97069 95.1517 1.4095 94.5905C0.848309 94.0293 0.435024 93.3377 0.206643 92.5776C-0.0217376 91.8176 -0.0580887 91.0127 0.100844 90.2352L4.56484 68.4576C1.54944 62.0597 -0.00958404 55.0728 4.43272e-05 48ZM26.4 40.8C24.4905 40.8 22.6591 41.5585 21.3089 42.9088C19.9586 44.2591 19.2 46.0904 19.2 48V48.048C19.2 49.9575 19.9586 51.7889 21.3089 53.1391C22.6591 54.4894 24.4905 55.248 26.4 55.248H26.448C28.3576 55.248 30.1889 54.4894 31.5392 53.1391C32.8895 51.7889 33.648 49.9575 33.648 48.048V48C33.648 46.0904 32.8895 44.2591 31.5392 42.9088C30.1889 41.5585 28.3576 40.8 26.448 40.8H26.4ZM48 40.8C46.0905 40.8 44.2591 41.5585 42.9089 42.9088C41.5586 44.2591 40.8 46.0904 40.8 48V48.048C40.8 49.9575 41.5586 51.7889 42.9089 53.1391C44.2591 54.4894 46.0905 55.248 48 55.248H48.048C49.9576 55.248 51.7889 54.4894 53.1392 53.1391C54.4895 51.7889 55.248 49.9575 55.248 48.048V48C55.248 46.0904 54.4895 44.2591 53.1392 42.9088C51.7889 41.5585 49.9576 40.8 48.048 40.8H48ZM62.4 48C62.4 46.0904 63.1586 44.2591 64.5089 42.9088C65.8591 41.5585 67.6905 40.8 69.6 40.8H69.648C71.5576 40.8 73.3889 41.5585 74.7392 42.9088C76.0894 44.2591 76.848 46.0904 76.848 48V48.048C76.848 49.9575 76.0894 51.7889 74.7392 53.1391C73.3889 54.4894 71.5576 55.248 69.648 55.248H69.6C67.6905 55.248 65.8591 54.4894 64.5089 53.1391C63.1586 51.7889 62.4 49.9575 62.4 48.048V48Z" fill="#CBD5E0"/>
</svg>
